<svg width="1495" height="1217" viewBox="0 0 1495 1217" fill="none" xmlns="http://www.w3.org/2000/svg">
<path d="M10.5734 1216.06V981.349L223.629 981.031L259.934 1010.65V1125.93L223.629 1155.87H126.177V1216.06H10.5734ZM126.177 1111.92H144.33V1024.66H126.177V1111.92ZM271.046 1216.06V981.349H499.069V1056.51H386.649V1074.98H484.419V1122.43H386.649V1140.58H499.069V1216.06H271.046ZM550.096 1216.06L513.79 1186.12V1010.65L550.096 981.031H726.846L763.151 1010.65V1186.12L726.846 1216.06H550.096ZM629.394 1172.11H647.547V1024.66H629.394V1172.11ZM777.684 1216.06V981.349L990.739 981.031L1027.04 1010.65V1125.93L990.739 1155.87H893.287V1216.06H777.684ZM893.287 1111.92H911.44V1024.66H893.287V1111.92ZM1038.16 1216.06V981.349H1153.76V1140.58H1241.66V1216.06H1038.16ZM1256.33 1216.06V981.349H1484.35V1056.51H1371.94V1074.98H1469.7V1122.43H1371.94V1140.58H1484.35V1216.06H1256.33Z" fill="black"/>
<path d="M146.373 234L110.255 204.218V114.872H225.264V190.277H243.323V0.496442H358.332V204.218L322.214 234H146.373ZM415.245 234L379.127 204.218V0.496442H494.136V190.277H512.195V0.496442H627.205V204.218L591.086 234H415.245ZM647.999 234V0.496442H763.008V158.911H850.453V234H647.999ZM881.832 234V169.05L815.614 112.021V0.496442H930.624V117.723H948.049V0.496442H1063.06V112.021L996.841 169.05V234H881.832ZM1183.58 234L1147.46 204.218V159.862H1255.5V190.277H1273.56V144.02H1180.09L1143.97 114.555V29.9616L1180.09 0.496442H1348.96L1385.08 29.9616V204.218L1348.96 234H1183.58ZM1255.5 98.08H1273.56V43.9021H1255.5V98.08Z" fill="#25B6FF"/>
<path d="M276.569 479.305L240.451 449.523V275.266L276.569 245.801H452.41L488.528 275.266V351.306H373.519V289.207H355.46V435.582H373.519V372.216H488.528V449.523L452.41 479.305H276.569ZM539.105 479.305L502.986 449.523V274.95L539.105 245.484H714.945L751.064 274.95V449.523L714.945 479.305H539.105ZM617.995 435.582H636.055V288.89H617.995V435.582ZM765.522 479.305V245.484H960.055L1013.6 292.375V432.097L960.055 479.305H765.522ZM880.531 435.582H898.59V288.89H880.531V435.582ZM1028.06 479.305V245.801H1254.91V320.573H1143.07V338.949H1240.33V386.157H1143.07V404.216H1254.91V479.305H1028.06Z" fill="black"/>
<path d="M370.576 724.557V491.053H597.426V565.825H485.585V584.201H581.901V648.201H485.585V724.557H370.576ZM648.191 724.557L612.072 694.775V520.201L648.191 490.736H824.031L860.15 520.201V694.775L824.031 724.557H648.191ZM727.081 680.834H745.141V534.142H727.081V680.834ZM874.608 724.557V491.053H1086.57L1122.69 520.518V619.052L1100.82 636.795L1133.77 724.557H1013.7L996.27 648.517H989.617V724.557H874.608ZM989.617 595.29H1007.68V534.459H989.617V595.29Z" fill="black"/>
<path d="M438.173 969.808V811.077H382.094V736.305H609.261V811.077H553.182V969.808H438.173ZM616.947 969.808V736.305H731.956V807.591H750.015V736.305H865.025V969.808H750.015V882.68H731.956V969.808H616.947ZM879.482 969.808V736.305H1106.33V811.077H994.492V829.453H1091.76V876.66H994.492V894.72H1106.33V969.808H879.482Z" fill="black"/>
</svg>
